<?xml version="1.0" encoding="UTF-8"?><svg xmlns="http://www.w3.org/2000/svg" viewBox="0 0 468.56 402.35"><defs><style>.cls-1,.cls-2,.cls-3,.cls-4,.cls-5,.cls-6,.cls-7,.cls-8,.cls-9,.cls-10,.cls-11,.cls-12,.cls-13,.cls-14,.cls-15,.cls-16,.cls-17,.cls-18,.cls-19,.cls-20,.cls-21,.cls-22,.cls-23,.cls-24,.cls-25,.cls-26,.cls-27,.cls-28,.cls-29,.cls-30,.cls-31,.cls-32{stroke-width:0px;}.cls-1,.cls-30{fill:#818284;}.cls-2{fill:#e47156;}.cls-3{fill:#e04a56;}.cls-4{fill:#625b6d;}.cls-5{fill:#007cc2;}.cls-33,.cls-6,.cls-19,.cls-24,.cls-26,.cls-30,.cls-31{mix-blend-mode:multiply;}.cls-33,.cls-19,.cls-34,.cls-24,.cls-25,.cls-26,.cls-30{opacity:.2;}.cls-35{isolation:isolate;}.cls-6{opacity:.5;}.cls-6,.cls-12{fill:#e6e7e9;}.cls-7{fill:#555259;}.cls-8{fill:#bcbdbf;}.cls-9,.cls-26{fill:#faa785;}.cls-10{fill:#0193de;}.cls-11,.cls-19,.cls-31{fill:#bcbbcb;}.cls-13{fill:#373040;}.cls-14,.cls-20,.cls-25{fill:#fff;}.cls-15{fill:#87758d;}.cls-16{fill:#c9eadf;}.cls-17{fill:#a7a7af;}.cls-18,.cls-24{fill:#393149;}.cls-20,.cls-34,.cls-25{mix-blend-mode:soft-light;}.cls-21{fill:#939498;}.cls-22{fill:#6d6e70;}.cls-23{fill:#534b63;}.cls-27{fill:#62453d;}.cls-28{fill:#bdbccc;}.cls-29{fill:#322c42;}.cls-31{opacity:.3;}.cls-36{fill:#f6bd2e;font-family:Roboto-Black, Roboto;font-size:30px;font-weight:800;}.cls-32{fill:#bf5345;}</style></defs><g class="cls-35"><g id="OBJECTS"><polygon class="cls-16" points="422.35 18.55 422.35 378.58 32.58 375.55 32.58 68.55 345.37 28.43 422.35 18.55"/><polygon class="cls-20" points="422.35 98.45 422.35 121.55 32.58 283.53 32.58 258.61 422.35 98.45"/><polygon class="cls-20" points="422.35 18.55 422.35 53.55 32.58 215.53 32.58 161.61 345.37 28.43 422.35 18.55"/><polygon class="cls-20" points="422.35 75.46 422.35 86.55 32.58 248.53 32.58 235.62 422.35 75.46"/><path class="cls-4" d="m468.56,384.22c0,8.94-114.92,18.13-240.74,18.13S0,387.52,0,378.58s102-8.6,227.82-8.6,240.74,5.3,240.74,14.24Z"/><ellipse class="cls-18" cx="227.82" cy="378.58" rx="227.82" ry="16.19"/><rect class="cls-12" x="361.18" y="122.98" width="17.65" height="242.92"/><rect class="cls-11" x="371.9" y="122.98" width="6.93" height="242.92"/><rect class="cls-11" x="295.19" y="362.54" width="149.62" height="11.77"/><rect class="cls-19" x="295.19" y="371.21" width="149.62" height="3.68"/><path class="cls-1" d="m371.84,133.54c-13.67-.9-25.47,9.45-26.37,23.12-.9,13.67,9.45,25.47,23.12,26.37,13.67.9,25.47-9.45,26.37-23.12.9-13.67-9.45-25.47-23.12-26.37Zm-2.97,45.2c-1.09-.07-1.91-1.01-1.84-2.1.07-1.09,1.01-1.92,2.1-1.85,9.1.6,17-6.32,17.6-15.43.07-1.09,1.01-1.91,2.1-1.84,1.09.07,1.91,1.01,1.84,2.1-.74,11.28-10.52,19.85-21.8,19.11Zm-17.27-19.7c-1.09-.07-1.91-1.01-1.84-2.1.74-11.28,10.52-19.85,21.8-19.11,1.09.07,1.91,1.01,1.84,2.1-.07,1.09-1.01,1.92-2.1,1.85-9.1-.6-17,6.32-17.6,15.43-.07,1.09-1.01,1.91-2.1,1.84Z"/><path class="cls-22" d="m371.57,137.7c-11.37-.75-21.18,7.86-21.93,19.23s7.86,21.18,19.23,21.93c11.37.75,21.18-7.86,21.93-19.23.75-11.37-7.86-21.18-19.23-21.93Zm-17.86,19.49c-.07,1.09-1.01,1.91-2.1,1.84-1.09-.07-1.91-1.01-1.84-2.1.74-11.28,10.52-19.85,21.8-19.11,1.09.07,1.91,1.01,1.84,2.1-.07,1.09-1.01,1.92-2.1,1.85-9.1-.6-17,6.32-17.6,15.43Zm15.17,21.54c-1.09-.07-1.91-1.01-1.84-2.1.07-1.09,1.01-1.92,2.1-1.85,9.1.6,17-6.32,17.6-15.43.07-1.09,1.01-1.91,2.1-1.84,1.09.07,1.91,1.01,1.84,2.1-.74,11.28-10.52,19.85-21.8,19.11Z"/><path class="cls-1" d="m376.58,158.7c-.23,3.52-3.27,6.18-6.79,5.95-3.52-.23-6.18-3.27-5.95-6.79.23-3.52,3.27-6.18,6.79-5.95,3.52.23,6.18,3.27,5.95,6.79Z"/><path class="cls-15" d="m373.71,158.51c-.13,1.93-1.79,3.39-3.72,3.26-1.93-.13-3.39-1.79-3.26-3.72.13-1.93,1.79-3.39,3.72-3.26,1.93.13,3.39,1.79,3.26,3.72Z"/><path class="cls-12" d="m373.13,158.47c-.11,1.61-1.49,2.83-3.1,2.72-1.61-.11-2.83-1.49-2.72-3.1.11-1.61,1.49-2.83,3.1-2.72s2.83,1.49,2.72,3.1Z"/><g class="cls-33"><path class="cls-1" d="m371.84,133.54c-13.67-.9-25.47,9.45-26.37,23.12-.9,13.67,9.45,25.47,23.12,26.37,13.67.9,25.47-9.45,26.37-23.12.9-13.67-9.45-25.47-23.12-26.37Zm-2.97,45.2c-1.09-.07-1.91-1.01-1.84-2.1.07-1.09,1.01-1.92,2.1-1.85,9.1.6,17-6.32,17.6-15.43.07-1.09,1.01-1.91,2.1-1.84,1.09.07,1.91,1.01,1.84,2.1-.74,11.28-10.52,19.85-21.8,19.11Zm-17.27-19.7c-1.09-.07-1.91-1.01-1.84-2.1.74-11.28,10.52-19.85,21.8-19.11,1.09.07,1.91,1.01,1.84,2.1-.07,1.09-1.01,1.92-2.1,1.85-9.1-.6-17,6.32-17.6,15.43-.07,1.09-1.01,1.91-2.1,1.84Z"/><path class="cls-22" d="m371.57,137.7c-11.37-.75-21.18,7.86-21.93,19.23s7.86,21.18,19.23,21.93c11.37.75,21.18-7.86,21.93-19.23.75-11.37-7.86-21.18-19.23-21.93Zm-17.86,19.49c-.07,1.09-1.01,1.91-2.1,1.84-1.09-.07-1.91-1.01-1.84-2.1.74-11.28,10.52-19.85,21.8-19.11,1.09.07,1.91,1.01,1.84,2.1-.07,1.09-1.01,1.92-2.1,1.85-9.1-.6-17,6.32-17.6,15.43Zm15.17,21.54c-1.09-.07-1.91-1.01-1.84-2.1.07-1.09,1.01-1.92,2.1-1.85,9.1.6,17-6.32,17.6-15.43.07-1.09,1.01-1.91,2.1-1.84,1.09.07,1.91,1.01,1.84,2.1-.74,11.28-10.52,19.85-21.8,19.11Z"/><path class="cls-1" d="m376.58,158.7c-.23,3.52-3.27,6.18-6.79,5.95-3.52-.23-6.18-3.27-5.95-6.79.23-3.52,3.27-6.18,6.79-5.95,3.52.23,6.18,3.27,5.95,6.79Z"/><path class="cls-15" d="m373.71,158.51c-.13,1.93-1.79,3.39-3.72,3.26-1.93-.13-3.39-1.79-3.26-3.72.13-1.93,1.79-3.39,3.72-3.26,1.93.13,3.39,1.79,3.26,3.72Z"/><path class="cls-12" d="m373.13,158.47c-.11,1.61-1.49,2.83-3.1,2.72-1.61-.11-2.83-1.49-2.72-3.1.11-1.61,1.49-2.83,3.1-2.72s2.83,1.49,2.72,3.1Z"/></g><path class="cls-1" d="m370.22,135.17c-13.69,0-24.8,11.1-24.8,24.8s11.1,24.8,24.8,24.8,24.8-11.1,24.8-24.8-11.1-24.8-24.8-24.8Zm0,45.3c-1.09,0-1.97-.88-1.97-1.97s.88-1.98,1.97-1.98c9.12,0,16.55-7.42,16.55-16.55,0-1.09.88-1.97,1.98-1.97s1.97.88,1.97,1.97c0,11.3-9.2,20.5-20.5,20.5Zm-18.53-18.53c-1.09,0-1.97-.88-1.97-1.97,0-11.3,9.2-20.5,20.5-20.5,1.09,0,1.97.88,1.97,1.97s-.88,1.98-1.97,1.98c-9.12,0-16.55,7.42-16.55,16.55,0,1.09-.88,1.97-1.98,1.97Z"/><path class="cls-22" d="m370.22,139.34c-11.39,0-20.62,9.23-20.62,20.62s9.23,20.62,20.62,20.62,20.62-9.23,20.62-20.62-9.23-20.62-20.62-20.62Zm-16.55,20.62c0,1.09-.88,1.97-1.98,1.97s-1.97-.88-1.97-1.97c0-11.3,9.2-20.5,20.5-20.5,1.09,0,1.97.88,1.97,1.97s-.88,1.98-1.97,1.98c-9.12,0-16.55,7.42-16.55,16.55Zm16.55,20.5c-1.09,0-1.97-.88-1.97-1.97s.88-1.98,1.97-1.98c9.12,0,16.55-7.42,16.55-16.55,0-1.09.88-1.97,1.98-1.97s1.97.88,1.97,1.97c0,11.3-9.2,20.5-20.5,20.5Z"/><circle class="cls-1" cx="370.22" cy="159.96" r="6.38"/><circle class="cls-22" cx="370.22" cy="159.96" r="3.5"/><path class="cls-12" d="m373.13,159.96c0,1.61-1.31,2.92-2.92,2.92s-2.92-1.31-2.92-2.92,1.31-2.92,2.92-2.92,2.92,1.31,2.92,2.92Z"/><path class="cls-1" d="m378.12,188.45c-19.24-4.36-38.38,7.7-42.74,26.94-4.36,19.24,7.7,38.38,26.94,42.74,19.24,4.36,38.38-7.7,42.74-26.94,4.36-19.24-7.7-38.38-26.94-42.74Zm-14.43,63.64c-1.53-.35-2.49-1.87-2.14-3.4.35-1.54,1.87-2.5,3.4-2.15,12.82,2.91,25.61-5.16,28.52-17.98.35-1.53,1.87-2.49,3.41-2.14,1.53.35,2.49,1.87,2.14,3.4-3.6,15.88-19.45,25.87-35.34,22.27Zm-20.13-31.93c-1.53-.35-2.49-1.87-2.14-3.4,3.6-15.88,19.45-25.87,35.34-22.27,1.53.35,2.49,1.87,2.14,3.4-.35,1.54-1.87,2.5-3.4,2.15-12.82-2.91-25.61,5.16-28.52,17.98-.35,1.53-1.87,2.49-3.41,2.14Z"/><path class="cls-22" d="m376.79,194.31c-16.01-3.63-31.92,6.4-35.55,22.4-3.63,16.01,6.4,31.92,22.4,35.55,16.01,3.63,31.92-6.4,35.55-22.4,3.63-16.01-6.4-31.92-22.4-35.55Zm-29.82,23.7c-.35,1.53-1.87,2.49-3.41,2.14-1.53-.35-2.49-1.87-2.14-3.4,3.6-15.88,19.45-25.87,35.34-22.27,1.53.35,2.49,1.87,2.14,3.4-.35,1.54-1.87,2.5-3.4,2.15-12.82-2.91-25.61,5.16-28.52,17.98Zm16.72,34.08c-1.53-.35-2.49-1.87-2.14-3.4.35-1.54,1.87-2.5,3.4-2.15,12.82,2.91,25.61-5.16,28.52-17.98.35-1.53,1.87-2.49,3.41-2.14,1.53.35,2.49,1.87,2.14,3.4-3.6,15.88-19.45,25.87-35.34,22.27Z"/><circle class="cls-1" cx="370.22" cy="223.28" r="9.2" transform="translate(-58.43 166.93) rotate(-23.61)"/><path class="cls-22" d="m375.13,224.4c-.62,2.72-3.32,4.42-6.03,3.8s-4.42-3.32-3.8-6.03c.62-2.72,3.32-4.42,6.03-3.8,2.72.62,4.42,3.32,3.8,6.03Z"/><path class="cls-12" d="m374.31,224.21c-.51,2.26-2.76,3.68-5.03,3.17-2.26-.51-3.68-2.76-3.17-5.03.51-2.26,2.76-3.68,5.03-3.17s3.68,2.76,3.17,5.03Z"/><path class="cls-30" d="m378.12,188.45c-19.24-4.36-38.38,7.7-42.74,26.94-4.36,19.24,7.7,38.38,26.94,42.74,19.24,4.36,38.38-7.7,42.74-26.94,4.36-19.24-7.7-38.38-26.94-42.74Zm-14.43,63.64c-1.53-.35-2.49-1.87-2.14-3.4.35-1.54,1.87-2.5,3.4-2.15,12.82,2.91,25.61-5.16,28.52-17.98.35-1.53,1.87-2.49,3.41-2.14,1.53.35,2.49,1.87,2.14,3.4-3.6,15.88-19.45,25.87-35.34,22.27Zm-20.13-31.93c-1.53-.35-2.49-1.87-2.14-3.4,3.6-15.88,19.45-25.87,35.34-22.27,1.53.35,2.49,1.87,2.14,3.4-.35,1.54-1.87,2.5-3.4,2.15-12.82-2.91-25.61,5.16-28.52,17.98-.35,1.53-1.87,2.49-3.41,2.14Z"/><path class="cls-1" d="m370.22,188.96c-19.73,0-35.72,15.99-35.72,35.72s15.99,35.72,35.72,35.72,35.72-15.99,35.72-35.72-15.99-35.72-35.72-35.72Zm0,65.26c-1.57,0-2.84-1.27-2.84-2.84s1.27-2.85,2.84-2.85c13.14,0,23.84-10.7,23.84-23.84,0-1.57,1.27-2.84,2.85-2.84s2.84,1.27,2.84,2.84c0,16.28-13.25,29.53-29.53,29.53Zm-26.69-26.69c-1.57,0-2.84-1.27-2.84-2.84,0-16.28,13.25-29.53,29.53-29.53,1.57,0,2.84,1.27,2.84,2.84s-1.27,2.85-2.84,2.85c-13.14,0-23.84,10.7-23.84,23.84,0,1.57-1.27,2.84-2.85,2.84Z"/><path class="cls-22" d="m370.22,194.97c-16.41,0-29.71,13.3-29.71,29.71s13.3,29.71,29.71,29.71,29.71-13.3,29.71-29.71-13.3-29.71-29.71-29.71Zm-23.84,29.71c0,1.57-1.27,2.84-2.85,2.84s-2.84-1.27-2.84-2.84c0-16.28,13.25-29.53,29.53-29.53,1.57,0,2.84,1.27,2.84,2.84s-1.27,2.85-2.84,2.85c-13.14,0-23.84,10.7-23.84,23.84Zm23.84,29.53c-1.57,0-2.84-1.27-2.84-2.84s1.27-2.85,2.84-2.85c13.14,0,23.84-10.7,23.84-23.84,0-1.57,1.27-2.84,2.85-2.84s2.84,1.27,2.84,2.84c0,16.28-13.25,29.53-29.53,29.53Z"/><circle class="cls-1" cx="370.22" cy="224.69" r="9.2" transform="translate(90.69 555.46) rotate(-81.05)"/><path class="cls-22" d="m375.26,224.69c0,2.79-2.26,5.04-5.04,5.04s-5.04-2.26-5.04-5.04,2.26-5.04,5.04-5.04,5.04,2.26,5.04,5.04Z"/><path class="cls-12" d="m374.42,224.69c0,2.32-1.88,4.2-4.2,4.2s-4.2-1.88-4.2-4.2,1.88-4.2,4.2-4.2,4.2,1.88,4.2,4.2Z"/><path class="cls-1" d="m378.23,265.24c-23.02-4.43-45.27,10.65-49.7,33.67-4.43,23.02,10.65,45.27,33.67,49.7,23.02,4.43,45.27-10.65,49.7-33.67,4.43-23.02-10.65-45.27-33.67-49.7Zm-14.65,76.15c-1.83-.35-3.03-2.12-2.68-3.96.35-1.84,2.13-3.04,3.96-2.69,15.34,2.95,30.22-7.13,33.17-22.47.35-1.83,2.12-3.03,3.96-2.68,1.83.35,3.03,2.12,2.68,3.96-3.65,19-22.09,31.49-41.09,27.83Zm-25.15-37.13c-1.83-.35-3.03-2.12-2.68-3.96,3.65-19,22.09-31.49,41.09-27.83,1.83.35,3.03,2.12,2.68,3.96-.35,1.84-2.13,3.04-3.96,2.69-15.34-2.95-30.22,7.13-33.17,22.47-.35,1.83-2.12,3.03-3.96,2.68Z"/><path class="cls-22" d="m376.88,272.25c-19.15-3.68-37.65,8.85-41.34,28-3.68,19.15,8.85,37.65,28,41.34,19.15,3.68,37.65-8.85,41.34-28,3.68-19.15-8.85-37.65-28-41.34Zm-34.48,29.32c-.35,1.83-2.12,3.03-3.96,2.68-1.83-.35-3.03-2.12-2.68-3.96,3.65-19,22.09-31.49,41.09-27.83,1.83.35,3.03,2.12,2.68,3.96-.35,1.84-2.13,3.04-3.96,2.69-15.34-2.95-30.22,7.13-33.17,22.47Zm21.19,39.81c-1.83-.35-3.03-2.12-2.68-3.96.35-1.84,2.13-3.04,3.96-2.69,15.34,2.95,30.22-7.13,33.17-22.47.35-1.83,2.12-3.03,3.96-2.68,1.83.35,3.03,2.12,2.68,3.96-3.65,19-22.09,31.49-41.09,27.83Z"/><circle class="cls-1" cx="370.22" cy="306.92" r="10.93" transform="translate(-104.81 381.85) rotate(-48.62)"/><path class="cls-22" d="m375.17,307.87c-.53,2.74-3.17,4.53-5.91,4-2.74-.53-4.53-3.17-4-5.91.53-2.74,3.17-4.53,5.91-4,2.74.53,4.53,3.17,4,5.91Z"/><path class="cls-12" d="m374.34,307.71c-.44,2.28-2.64,3.77-4.92,3.33s-3.77-2.64-3.33-4.92c.44-2.28,2.64-3.77,4.92-3.33,2.28.44,3.77,2.64,3.33,4.92Z"/><path class="cls-6" d="m378.23,265.24c-23.02-4.43-45.27,10.65-49.7,33.67-4.43,23.02,10.65,45.27,33.67,49.7,23.02,4.43,45.27-10.65,49.7-33.67,4.43-23.02-10.65-45.27-33.67-49.7Zm-14.65,76.15c-1.83-.35-3.03-2.12-2.68-3.96.35-1.84,2.13-3.04,3.96-2.69,15.34,2.95,30.22-7.13,33.17-22.47.35-1.83,2.12-3.03,3.96-2.68,1.83.35,3.03,2.12,2.68,3.96-3.65,19-22.09,31.49-41.09,27.83Zm-25.15-37.13c-1.83-.35-3.03-2.12-2.68-3.96,3.65-19,22.09-31.49,41.09-27.83,1.83.35,3.03,2.12,2.68,3.96-.35,1.84-2.13,3.04-3.96,2.69-15.34-2.95-30.22,7.13-33.17,22.47-.35,1.83-2.12,3.03-3.96,2.68Z"/><path class="cls-1" d="m370.22,266.29c-23.44,0-42.45,19.01-42.45,42.45s19.01,42.45,42.45,42.45,42.45-19.01,42.45-42.45-19.01-42.45-42.45-42.45Zm0,77.54c-1.87,0-3.38-1.51-3.38-3.38s1.51-3.39,3.38-3.39c15.62,0,28.33-12.71,28.33-28.33,0-1.87,1.51-3.38,3.39-3.38s3.38,1.51,3.38,3.38c0,19.35-15.74,35.09-35.09,35.09Zm-31.71-31.71c-1.87,0-3.38-1.51-3.38-3.38,0-19.35,15.74-35.09,35.09-35.09,1.87,0,3.38,1.51,3.38,3.38s-1.51,3.39-3.38,3.39c-15.62,0-28.33,12.71-28.33,28.33,0,1.87-1.51,3.38-3.39,3.38Z"/><path class="cls-22" d="m370.22,273.44c-19.5,0-35.3,15.8-35.3,35.3s15.8,35.3,35.3,35.3,35.3-15.8,35.3-35.3-15.8-35.3-35.3-35.3Zm-28.33,35.3c0,1.87-1.51,3.38-3.39,3.38s-3.38-1.51-3.38-3.38c0-19.35,15.74-35.09,35.09-35.09,1.87,0,3.38,1.51,3.38,3.38s-1.51,3.39-3.38,3.39c-15.62,0-28.33,12.71-28.33,28.33Zm28.33,35.09c-1.87,0-3.38-1.51-3.38-3.38s1.51-3.39,3.38-3.39c15.62,0,28.33-12.71,28.33-28.33,0-1.87,1.51-3.38,3.39-3.38s3.38,1.51,3.38,3.38c0,19.35-15.74,35.09-35.09,35.09Z"/><circle class="cls-1" cx="370.22" cy="308.74" r="10.93" transform="translate(49.41 668.56) rotate(-88.11)"/><circle class="cls-22" cx="370.22" cy="308.74" r="5.04" transform="translate(-104.01 395.3) rotate(-50.17)"/><circle class="cls-12" cx="370.22" cy="308.74" r="4.2" transform="translate(-16.43 20.85) rotate(-3.16)"/><rect class="cls-17" x="97.73" y="83.48" width="2.65" height="158.45"/><circle class="cls-12" cx="105.95" cy="79.24" r="11.66"/><circle class="cls-11" cx="105.95" cy="79.24" r="7.95" transform="translate(6.01 165.94) rotate(-77.74)"/><path class="cls-12" d="m109.13,79.24c0,1.76-1.42,3.18-3.18,3.18s-3.18-1.42-3.18-3.18,1.42-3.18,3.18-3.18,3.18,1.42,3.18,3.18Z"/><rect class="cls-12" x="76.27" y="76.07" width="4.24" height="196.07"/><rect class="cls-12" x="131.39" y="76.07" width="4.24" height="196.07"/><rect class="cls-11" x="70.97" y="235.04" width="69.95" height="15.9"/><rect class="cls-19" x="70.97" y="247.23" width="69.95" height="3.71"/><rect class="cls-11" x="70.97" y="250.94" width="69.95" height="15.9"/><rect class="cls-19" x="70.97" y="263.13" width="69.95" height="3.71"/><rect class="cls-11" x="70.97" y="266.84" width="69.95" height="15.9"/><rect class="cls-19" x="70.97" y="279.03" width="69.95" height="3.71"/><rect class="cls-11" x="70.97" y="282.74" width="69.95" height="15.9"/><rect class="cls-19" x="70.97" y="294.93" width="69.95" height="3.71"/><rect class="cls-11" x="70.97" y="298.64" width="69.95" height="15.9"/><rect class="cls-19" x="70.97" y="310.82" width="69.95" height="3.71"/><rect class="cls-11" x="70.97" y="314.53" width="69.95" height="15.9"/><rect class="cls-19" x="70.97" y="326.72" width="69.95" height="3.71"/><rect class="cls-11" x="70.97" y="330.43" width="69.95" height="15.9"/><rect class="cls-19" x="70.97" y="342.62" width="69.95" height="3.71"/><rect class="cls-11" x="70.97" y="346.33" width="69.95" height="15.9"/><rect class="cls-19" x="70.97" y="358.52" width="69.95" height="3.71"/><path class="cls-12" d="m45.01,67.59v306.3h121.88V67.59H45.01Zm110.23,294.64H56.67V79.24h98.57v282.98Z"/><path class="cls-31" d="m50.61,75.01v291.46h110.68V75.01H50.61Zm104.63,287.22H56.67V79.24h98.57v282.98Z"/><path class="cls-15" d="m46.44,292.98h0c-1.5-6.7,2.97-13.28,9.75-14.36l70.38-11.21c7.11-1.13,13.55,4.36,13.55,11.57h0c0,6.47-5.24,11.71-11.71,11.71h-3.66l-1.59-7.42-75.78,14.31-.95-4.59Z"/><path class="cls-15" d="m139.04,283.91c-.58,1.25-1.38,2.37-2.34,3.34-2.12,2.12-5.04,3.43-8.28,3.43h-3.66l-1.59-7.42-75.78,14.31-.36-1.76c1.51-3.72,4.86-6.61,9.16-7.3l70.39-11.21c5.35-.86,10.33,2.06,12.46,6.61Z"/><path class="cls-19" d="m139.04,283.91c-.58,1.25-1.38,2.37-2.34,3.34-2.12,2.12-5.04,3.43-8.28,3.43h-3.66l-1.59-7.42-75.78,14.31-.36-1.76c1.51-3.72,4.86-6.61,9.16-7.3l70.39-11.21c5.35-.86,10.33,2.06,12.46,6.61Z"/><polygon class="cls-12" points="131.65 294.4 43.15 306.59 43.15 293.87 131.65 281.68 131.65 294.4"/><polygon class="cls-19" points="131.65 294.4 43.15 306.59 42.62 302.88 131.65 290.33 131.65 294.4"/><path class="cls-15" d="m27.61,169.51l16.47,90.26,9.41-2.35c2.08-.52,3.4-2.57,3.01-4.68l-15.01-81.58c-.4-2.19-2.5-3.65-4.69-3.27l-9.2,1.6Z"/><path class="cls-19" d="m36.79,167.92l16.34,89.56.32-.08c2.1-.5,3.44-2.56,3.05-4.68l-15-81.53c-.4-2.2-2.51-3.65-4.7-3.26h0Z"/><polygon class="cls-12" points="10.83 155.02 36.55 292.98 36.55 295.81 36.55 373.53 50.46 373.53 50.46 295.81 50.46 292.98 24.25 152.38 10.83 155.02"/><polygon class="cls-19" points="20.1 153.17 46.44 292.98 46.44 295.81 46.44 373.53 50.46 373.53 50.46 295.81 50.46 292.98 24.25 152.38 20.1 153.17"/><polygon class="cls-12" points="119.99 373.71 131.65 373.71 131.65 281.68 119.99 284.46 119.99 373.71"/><polygon class="cls-19" points="131.65 281.68 127.06 282.21 127.06 373.89 131.65 373.89 131.65 281.68"/><rect class="cls-12" x="61.43" y="272.14" width="3.71" height="21.99"/><rect class="cls-12" x="70.71" y="261.28" width="3.71" height="21.99" transform="translate(329.56 156.73) rotate(80.72)"/><rect class="cls-17" x="72.4" y="263.57" width="6.42" height="15.71" rx="3.03" ry="3.03" transform="translate(331.27 153.01) rotate(80.71)"/><path class="cls-11" d="m51.1,371.08l-.43-2.77c-.24-1.56-1.59-2.72-3.17-2.72h-10.79c-1.58,0-2.93,1.15-3.17,2.72l-.43,2.77c-.3,1.94,1.2,3.69,3.17,3.69h11.64c1.97,0,3.47-1.75,3.17-3.69Z"/><path class="cls-11" d="m134.83,371.08l-.43-2.77c-.24-1.56-1.59-2.72-3.17-2.72h-10.79c-1.58,0-2.93,1.15-3.17,2.72l-.43,2.77c-.3,1.94,1.2,3.69,3.17,3.69h11.64c1.96,0,3.47-1.75,3.17-3.69Z"/><path class="cls-11" d="m169.28,371.08l-.43-2.77c-.24-1.56-1.59-2.72-3.17-2.72h-10.79c-1.58,0-2.93,1.15-3.17,2.72l-.43,2.77c-.3,1.94,1.2,3.69,3.17,3.69h11.64c1.96,0,3.47-1.75,3.17-3.69Z"/><path class="cls-8" d="m242.65,263.34h-34.51c-10.6,0-19.22-8.62-19.22-19.22v-17.64c0-10.6,8.62-19.22,19.22-19.22h34.51c10.6,0,19.22,8.62,19.22,19.22v17.64c0,10.6-8.62,19.22-19.22,19.22Zm-34.51-49.09c-6.74,0-12.22,5.48-12.22,12.22v17.64c0,6.74,5.48,12.22,12.22,12.22h34.51c6.74,0,12.22-5.48,12.22-12.22v-17.64c0-6.74-5.48-12.22-12.22-12.22h-34.51Z"/><circle class="cls-8" cx="225.39" cy="305.09" r="69.79"/><path class="cls-21" d="m295.19,305.09c0,38.55-31.25,69.79-69.8,69.79-22.73,0-42.92-10.86-55.65-27.69,8.78,3.99,18.54,6.21,28.82,6.21,38.54,0,69.79-31.24,69.79-69.79,0-15.82-5.27-30.4-14.13-42.11,24.17,10.97,40.97,35.31,40.97,63.58Z"/><circle class="cls-20" cx="192.97" cy="260.22" r="8.82" transform="translate(-104.74 387.98) rotate(-76.67)"/><circle class="cls-20" cx="206.01" cy="276.33" r="4.99"/><path class="cls-13" d="m403.93,329.78h-15.33c-5.51,0-9.98-4.48-9.98-9.98v-18.77c0-5.51,4.48-9.98,9.98-9.98h15.33c5.51,0,9.98,4.48,9.98,9.98v18.77c0,5.51-4.48,9.98-9.98,9.98Zm-15.33-32.73c-2.2,0-3.98,1.79-3.98,3.98v18.77c0,2.2,1.79,3.98,3.98,3.98h15.33c2.2,0,3.98-1.79,3.98-3.98v-18.77c0-2.2-1.79-3.98-3.98-3.98h-15.33Z"/><circle class="cls-13" cx="396.27" cy="346.88" r="31" transform="translate(-5.12 5.94) rotate(-.85)"/><g class="cls-34"><path class="cls-14" d="m409.26,375.03c-3.95,1.83-8.36,2.85-13,2.85-17.12,0-31-13.88-31-31s13.88-31,31-31c4.64,0,9.05,1.02,13,2.85-10.63,4.91-18.01,15.67-18.01,28.15s7.38,23.24,18.01,28.15Z"/></g><circle class="cls-7" cx="396.27" cy="346.88" r="14.77"/><circle class="cls-20" cx="380.19" cy="330.94" r="3.92"/><path class="cls-13" d="m356.15,343.89h-11.1c-4.44,0-8.05-3.61-8.05-8.06v-13.58c0-4.44,3.61-8.05,8.05-8.05h11.1c4.44,0,8.06,3.61,8.06,8.05v13.58c0,4.44-3.61,8.06-8.06,8.06Zm-11.1-23.69c-1.13,0-2.05.92-2.05,2.05v13.58c0,1.13.92,2.06,2.05,2.06h11.1c1.13,0,2.06-.92,2.06-2.06v-13.58c0-1.13-.92-2.05-2.06-2.05h-11.1Z"/><circle class="cls-13" cx="350.6" cy="355.44" r="22.44"/><g class="cls-34"><path class="cls-14" d="m360.01,375.82c-2.86,1.32-6.05,2.06-9.41,2.06-12.39,0-22.44-10.04-22.44-22.44s10.05-22.44,22.44-22.44c3.36,0,6.55.74,9.41,2.06-7.69,3.56-13.03,11.34-13.03,20.38s5.34,16.82,13.03,20.38Z"/></g><circle class="cls-7" cx="350.6" cy="355.44" r="10.69"/><path class="cls-20" d="m341.8,343.9c0,1.57-1.27,2.84-2.84,2.84s-2.84-1.27-2.84-2.84,1.27-2.84,2.84-2.84,2.84,1.27,2.84,2.84Z"/><path class="cls-18" d="m172.36,151.33s1.56,12.44,14.4,14.15c0,0-1.23-12.06-14.4-14.15Z"/><path class="cls-27" d="m206.91,111.47s-.92,2.01,2.1,5.95l-.53-6.15-1.57.2Z"/><path class="cls-9" d="m208.41,116.35l-1.66,16.64s13.59,9.43,16.08,9.15l3.05-15.8-17.47-9.98Z"/><path class="cls-2" d="m207.81,122.41l.61-6.06,17.47,9.98-1.64,8.48c-6.9-2.42-13.03-6.47-16.44-12.41Z"/><path class="cls-2" d="m239.63,109.71c0,9.16-4.61,16.93-11.01,19.71-.19.08-.37.16-.56.22-1.46.57-3.02.86-4.62.86-8.94,0-16.19-9.31-16.19-20.79s7.25-20.8,16.19-20.8c.21,0,.39,0,.58,0,1.16.05,2.28.27,3.36.62.17.05.33.11.5.17,6.78,2.48,11.74,10.5,11.74,20Z"/><path class="cls-9" d="m228.16,113.73s.92,12.18-.1,15.91c-1.46.57-3.02.86-4.62.86-8.94,0-16.19-9.31-16.19-20.79s7.25-20.8,16.19-20.8c.21,0,.39,0,.58,0,1.23,0,2.14.1,3.36.55v14.65l5.48,7.83-4.7,1.79Z"/><path class="cls-32" d="m228.16,113.73s3.13.45,4.7-1.79c0,0-3.58.45-4.7,1.79Z"/><path class="cls-14" d="m230.84,119.03s-2.85.73-4.7-.17c0,0,2.18,3.69,4.7.17Z"/><polygon class="cls-27" points="224.73 101.16 223.66 99.9 218.98 100.96 218 102.65 224.73 101.16"/><polygon class="cls-27" points="229.29 101.56 230.14 100.19 233.22 100.67 234.2 102.21 229.29 101.56"/><path class="cls-27" d="m222.01,106.69c0,.56.45,1.01,1.01,1.01s1.01-.45,1.01-1.01-.45-1.01-1.01-1.01-1.01.45-1.01,1.01Z"/><path class="cls-27" d="m231.52,106.69c0,.56.45,1.01,1.01,1.01s1.01-.45,1.01-1.01-.45-1.01-1.01-1.01-1.01.45-1.01,1.01Z"/><path class="cls-27" d="m215.64,94.94s19.12,6.71,27.51,2.01c0,0-1.01-15.1-28.52-11.41,0,0-4.03,7.38,1.01,9.39Z"/><path class="cls-9" d="m202.5,107.36c0,2.96,1.78,5.37,3.97,5.37s3.97-2.4,3.97-5.37-1.78-5.37-3.97-5.37-3.97,2.4-3.97,5.37Z"/><ellipse class="cls-26" cx="206.16" cy="107.36" rx="1.93" ry="2.61"/><path class="cls-27" d="m215.64,94.94s-.67,7.88-5.03,11.74c0,0-.95-5.11-4.72-4.65,0,0-1.73-16.57,8.75-16.49,0,0,7.21,5.54,1.01,9.39Z"/><path class="cls-2" d="m201.53,270.47s-10.59,14.78-11.25,15.44-7.94.22-15.44,7.72c-7.5,7.5-34.19,22.28-34.19,22.28l-11.03-8.16s34.41-38.16,48.96-40.8c1.32-3.09,6.62-14.78,6.62-14.78,0,0,17.42,12.13,16.32,18.31Z"/><path class="cls-29" d="m195.35,225.92l-11.25,26.25s3.09,13.23,20.29,19.85c0,0,11.25-7.28,14.56-15.88,3.31-8.6-23.6-30.22-23.6-30.22Z"/><path class="cls-24" d="m196.55,225.02l-.97,2.27c1.38,14.06,10.15,24.97,20,35.13,1.89-2.17,3.59-4.62,4.57-7.18,3.31-8.6-23.6-30.22-23.6-30.22Z"/><path class="cls-9" d="m228.44,274.22s5.95,5.29,5.73,9.7-.88,18.75,6.4,29.77c7.28,11.03,19.19,33.97,19.19,33.97,0,0,12.79-7.72,12.79-9.48s-15.88-36.39-16.1-46.98c-.22-10.59-.44-18.09-2.87-22.06-2.43-3.97-5.07-9.26-5.07-9.26l-20.07,14.34Z"/><path class="cls-2" d="m250.01,262.78c-.89-1.69-1.5-2.9-1.5-2.9l-20.07,14.34s.67.6,1.55,1.55c10.35-.67,16.26-5.78,20.02-12.99Z"/><path class="cls-18" d="m195.35,214.67s-1.98,11.91,3.97,23.82,22.5,36.61,22.5,36.61c0,0,16.54,1.1,29.11-12.57l-16.18-44.67-39.4-3.19Z"/><path class="cls-24" d="m228.32,221.07c2.31-.46,4.85-1.4,6.53-2.94l-.1-.27-39.4-3.19s-.61,3.69-.13,9.02c10.74,1.33,21.73.87,33.1-2.62Z"/><path class="cls-25" d="m238.42,227.97c-.24,15.21-3.45,30.88-17.28,38.89-1.12.71-2.26,1.39-3.41,2.04,2.44,3.74,4.09,6.2,4.09,6.2,0,0,16.54,1.1,29.11-12.57l-12.52-34.56Z"/><path class="cls-29" d="m209.74,215.83l-1.17-.1c.08,21.84,12.93,41.29,29.51,56,1-.44,2.01-.94,3.03-1.5-16.94-12.18-28.18-32.85-31.37-54.41Z"/><path class="cls-2" d="m237.7,164.16s9.93-5.29,9.93-6.62-1.32-3.97-1.32-3.97c0,0-4.41-10.15,1.76-10.81s6.18,3.75,7.94,3.75,3.75,3.53,3.53,5.07c-.22,1.54-4.85,17.42-15.22,23.38-10.37,5.95-10.81,7.06-10.81,7.06l4.19-17.87Z"/><path class="cls-23" d="m224.58,132.78s-1.2,8.68-17.54-4.79l-11.66,2.38s8.75,42.65,4.92,54.14c-3.83,11.48-10.39,23.51-7.66,29.53,2.73,6.02,33.9,8.75,42.11,3.83,0,0-.55-15.86,1.09-20.78s7.11-37.73,2.19-51.4c0,0-4.71-13.45-13.46-12.9Z"/><path class="cls-24" d="m238.08,185.71c-1.93,2.28-4.02,4.48-6.16,6.62-4.49,4.49-3.59,17.06-9.88,19.75-8.44,3.49-18.29,3.59-28.39,3.16,6.02,5.14,33.49,7.19,41.11,2.61,0,0-.55-15.86,1.09-20.78.51-1.54,1.4-5.81,2.23-11.37Z"/><path class="cls-24" d="m229.22,139.36c1.45-.62,2.51-1.64,3.3-2.91-2.08-2.2-4.74-3.87-7.94-3.67,0,0-1.2,8.68-17.54-4.79l-7.1,1.45c8.41,6.9,17.7,14.89,29.28,9.92Z"/><path class="cls-18" d="m192.27,159.53s10.15,14.56,6.18,30.66c0,0,5.29-5.51,1.98-32.2l-8.16,1.54Z"/><path class="cls-9" d="m176.17,150.71s-13.23,18.97-12.57,21.61c.66,2.65,15.22,14.12,26.47,16.32,11.25,2.21,15.44,7.06,15.44,7.06,0,0,6.4-8.6,2.21-12.13-4.19-3.53-21.17-12.35-24.7-15l6.84-7.5s8.16-20.29-13.67-10.37Z"/><path class="cls-2" d="m184.86,166.53l4.98-5.46s8.16-20.29-13.67-10.37c0,0-.67.96-1.69,2.46,1.33.34,2.45.9,3.57,1.46,3.98,2.99,4.93,8.18,6.82,11.91Z"/><path class="cls-9" d="m207.7,183.57l8.15-.17c1.48-.03,2.93.46,4.07,1.4,1.19.98,3.53,2.75,4.65,4.64.6,1.01.42,2.23-.19,3.24-.05.09-.09.19-.12.29-.07.36.02.72.04,1.08.02.36-.05.77-.34.99-.16.12-.37.16-.51.31-.36.37.03.97,0,1.48-.03.43-.35.77-.65,1.07-.77.76-1.53,2.02-2.63,2.01-.84,0-1.79-.42-2.6-.64-2.14-.57-4.14-.93-6.34-.93-3.31.44-5.73-2.65-5.73-2.65,0,0-5.29-9.48,2.21-12.13Z"/><path class="cls-2" d="m224.21,192.78s-.6-2.17-3.14-2.54l3.14,2.54Z"/><path class="cls-2" d="m223.31,195.33l-3.97-3.22s3.37.97,3.97,3.22Z"/><path class="cls-2" d="m222.26,198.02s-1.72-2.17-2.99-2.17c0,0,2.02,1.57,2.99,2.17Z"/><path class="cls-23" d="m195.38,130.37s-6.57,1.39-10.76,6.9c-4.19,5.51-12.27,14.07-12.27,14.07,0,0,12.85,4,14.4,14.15,0,0,6.4-5.29,13.67-7.5,7.28-2.21-5.04-27.62-5.04-27.62Z"/><path class="cls-3" d="m258.13,342.77h2.77s1.85,2.03,2.96,1.48,4.81-9.81,11.1-8.14l-.74,5.74s19.8,1.3,21.46,4.26c1.66,2.96,1.85,4.26,1.85,4.26l-37.19,5.74s-.37-6.66-2.22-8.88c-1.85-2.22,0-4.44,0-4.44Z"/><path class="cls-25" d="m297.54,350.35s-.18-1.3-1.85-4.26c-.89-1.59-6.99-2.69-12.46-3.38,1.82,1.54,2.93,2.96.76,4.05-6.33,3.9-16.36,2.25-24.64,3.08.81,2.77,1,6.25,1,6.25l37.19-5.74Z"/><polygon class="cls-18" points="297.54 350.35 298.28 353.68 261.09 359.79 260.35 356.09 297.54 350.35"/><path class="cls-18" d="m275.15,340.92s-6.11,2.04-7.03,6.66c-.55.56.55,1.85,2.78-.56,2.22-2.41,5-5.18,9.07-4.63,0,0,1.66-2.59-4.81-1.48Z"/><path class="cls-18" d="m274.97,349.8s-2.22.56-2.22-.37,3.7-7.96,9.81-7.03c1.67,0,6.48,1.48,6.48,1.48,0,0-.74,1.11-2.78.74-2.03-.37-5.18-2.03-11.29,5.18Z"/><path class="cls-3" d="m130.78,306.47s-1.02-.58-2.32.29c-1.31.87-7.66,8.09-7.66,8.09l24.29,26.57s3.05-1.09,3.09-3.15-7.86-18.18-7.35-19.78,2.18-2.39,3.81-2.07-.25-3.45-1.88-3.77c-1.63-.33-9.18-.33-11.97-6.17Z"/><path class="cls-25" d="m144.15,327.78c-1.4,1-4.12.88-5.61.13-5.25-4.2-11.18-9.34-17.47-13.38-.18.2-.27.31-.27.31l24.29,26.57s3.05-1.09,3.09-3.15c.02-1.07-2.07-5.86-4.03-10.48Z"/><polygon class="cls-18" points="120.8 314.84 118.04 318.25 142.48 343.15 145.09 341.41 120.8 314.84"/><path class="cls-18" d="m141.58,318.45s-7.04-3.49-9-2.18c-1.31.87.94,1.89,1.96,1.52,1.02-.36,7.18,1.82,8.05,3.12.8.73,1.42-1.41-1.01-2.47Z"/><path class="cls-18" d="m133.93,319.93s-2.29,1.99-.58,1.96c1.71-.04,5.73-1.3,9.98,3.89,1.81,1.31,1.27-2.58-.76-3.74-2.03-1.16-5.8-3.05-8.63-2.11Z"/><rect class="cls-10" x="104.42" y="379.64" width="6.97" height="5.09"/><rect class="cls-5" x="101.45" y="384.06" width="12.93" height="4.9"/><rect class="cls-5" x="251.29" y="384.06" width="12.93" height="4.9"/><rect class="cls-5" x="341.63" y="384.06" width="12.93" height="4.9"/><rect class="cls-10" x="248.4" y="378.92" width="109.09" height="7.12"/><path class="cls-12" d="m360.63,381.15H87.53c-4.43,0-7.16-4.83-4.88-8.63h0c4.58-7.63,12.82-12.3,21.72-12.3h256.28v20.92Z"/><path class="cls-5" d="m360.63,381.15H86.98c7.89-10.76,20.44-17.12,33.78-17.12h239.88v17.12Z"/><path class="cls-28" d="m360.63,381.15H98.01l.21-.22c7.89-8.13,18.73-12.72,30.06-12.72h232.35v12.93Z"/><path class="cls-5" d="m360.63,364.03v-1.98c0-11-8.92-19.92-19.92-19.92h0c-11.49,0-22.87,2.24-33.5,6.61l-37.62,15.45,91.04-.15Z"/><rect class="cls-5" x="330.9" y="176.1" width="6.85" height="45.88" transform="translate(86.68 -101.06) rotate(19.7)"/><rect class="cls-25" x="331.04" y="175.33" width="2.28" height="45.88" transform="translate(86.3 -100.39) rotate(19.7)"/><path class="cls-12" d="m373.12,389.07h-56.22l-2.57-22.34-.36-3.11-12.91-112.25h19.41l12.9,112.25.36,3.11.4,3.51c.24,2.06,1.98,3.61,4.05,3.61h19.7c4.21,0,8.01,1.7,10.77,4.46,2.75,2.76,4.46,6.56,4.46,10.77Z"/><polygon class="cls-20" points="316.81 251.37 329.72 363.62 333.39 363.62 320.48 251.37 316.81 251.37"/><polygon class="cls-10" points="333.75 366.73 314.34 366.73 313.98 363.62 333.39 363.62 333.75 366.73"/><polygon class="cls-19" points="301.07 251.37 313.98 363.62 319.92 363.62 307.01 251.37 301.07 251.37"/><path class="cls-10" d="m364.53,197.12c-1.52-2.32-3.82-3.87-6.36-4.48-.81-.2-1.65-.3-2.49-.3-1.5,0-3.04.33-4.48,1-14.83,6.94-30.22,12.53-45.99,16.71-15.77,4.18-31.91,6.96-48.23,8.28l-17.45,1.41c-2.78.23-4.45,2.68-4.19,5.07.1,1,.54,1.98,1.37,2.78l5.12,4.96c3.65,3.54,8.57,5.47,13.65,5.36l33.59-.73c5.76-.12,10.65,4.18,11.27,9.9l.82,7.59h19.41l-2.02-18.76c-.31-2.86,1.27-5.59,3.9-6.75l37.51-16.57c5.98-2.64,8.15-10.01,4.57-15.48Zm-100.78,34.56c-2.22,0-4.4-.44-6.42-1.28s-3.87-2.06-5.44-3.64c-1.4-1.41-.52-3.82,1.46-3.98l44.31-3.42,1.15,11.6-35.06.71Z"/><path class="cls-25" d="m358.17,192.64c-43.12,25.03-94.73,26.76-110.57,28.9-7.18.97-10.64,2.2-12.26,3.27-.26-2.39,1.41-4.85,4.19-5.07l17.45-1.41c16.32-1.32,32.46-4.09,48.23-8.28,15.77-4.18,31.16-9.77,45.99-16.71,1.44-.67,2.97-1,4.48-1,.84,0,1.67.1,2.49.3Z"/><path class="cls-12" d="m312.57,249.11c0,1.09-.89,1.98-1.98,1.98s-1.98-.89-1.98-1.98.89-1.98,1.98-1.98,1.98.89,1.98,1.98Z"/><path class="cls-12" d="m121.63,374.93c0,1.09-.89,1.98-1.98,1.98s-1.98-.89-1.98-1.98.89-1.98,1.98-1.98,1.98.89,1.98,1.98Z"/><path class="cls-19" d="m326.42,382.57c0,1.09-.89,1.98-1.98,1.98s-1.98-.89-1.98-1.98.89-1.98,1.98-1.98,1.98.89,1.98,1.98Z"/><path class="cls-13" d="m435.74,348.21h-9.8c-4.12,0-7.47-3.35-7.47-7.47v-12c0-4.12,3.35-7.47,7.47-7.47h9.8c4.12,0,7.47,3.35,7.47,7.47v12c0,4.12-3.35,7.47-7.47,7.47Zm-9.8-20.93c-.81,0-1.47.66-1.47,1.47v12c0,.81.66,1.47,1.47,1.47h9.8c.81,0,1.47-.66,1.47-1.47v-12c0-.81-.66-1.47-1.47-1.47h-9.8Z"/><circle class="cls-13" cx="430.84" cy="358.06" r="19.82"/><g class="cls-34"><path class="cls-14" d="m439.15,376.06c-2.53,1.17-5.35,1.82-8.31,1.82-10.95,0-19.82-8.87-19.82-19.82s8.88-19.82,19.82-19.82c2.97,0,5.79.65,8.31,1.82-6.8,3.14-11.51,10.02-11.51,18s4.72,14.86,11.51,18Z"/></g><circle class="cls-7" cx="430.84" cy="358.06" r="9.45"/><path class="cls-20" d="m423.06,347.86c0,1.38-1.12,2.51-2.51,2.51s-2.51-1.12-2.51-2.51,1.12-2.51,2.51-2.51,2.51,1.12,2.51,2.51Z"/><text class="cls-36" transform="translate(98.08 59.14) rotate(-7.31)"><tspan x="0" y="0">“</tspan></text><text class="cls-36" transform="translate(110.79 57.51) rotate(-7.31)"><tspan x="0" y="0">N</tspan></text><text class="cls-36" transform="translate(131.69 54.83) rotate(-7.31)"><tspan x="0" y="0">O</tspan></text><text class="cls-36" transform="translate(152.24 52.2) rotate(-7.31)"><tspan x="0" y="0"> </tspan></text><text class="cls-36" transform="translate(159.67 51.24) rotate(-7.31)"><tspan x="0" y="0">P</tspan></text><text class="cls-36" transform="translate(176.44 49.09) rotate(-7.31)"><tspan x="0" y="0">A</tspan></text><text class="cls-36" transform="translate(196.71 46.49) rotate(-7.31)"><tspan x="0" y="0">I</tspan></text><text class="cls-36" transform="translate(205.68 45.34) rotate(-7.31)"><tspan x="0" y="0">N</tspan></text><text class="cls-36" transform="translate(226.58 42.66) rotate(-7.31)"><tspan x="0" y="0"> </tspan></text><text class="cls-36" transform="translate(233.99 41.71) rotate(-7.31)"><tspan x="0" y="0">N</tspan></text><text class="cls-36" transform="translate(254.91 39.03) rotate(-7.31)"><tspan x="0" y="0">O</tspan></text><text class="cls-36" transform="translate(275.45 36.39) rotate(-7.31)"><tspan x="0" y="0"> </tspan></text><text class="cls-36" transform="translate(282.86 35.44) rotate(-7.31)"><tspan x="0" y="0">G</tspan></text><text class="cls-36" transform="translate(303.16 32.84) rotate(-7.31)"><tspan x="0" y="0">A</tspan></text><text class="cls-36" transform="translate(323.42 30.24) rotate(-7.31)"><tspan x="0" y="0">I</tspan></text><text class="cls-36" transform="translate(332.41 29.08) rotate(-7.31)"><tspan x="0" y="0">N</tspan></text><text class="cls-36" transform="translate(353.3 26.41) rotate(-7.31)"><tspan x="0" y="0"> </tspan></text></g></g></svg>