<?xml version="1.0" encoding="UTF-8"?><svg xmlns="http://www.w3.org/2000/svg" xmlns:xlink="http://www.w3.org/1999/xlink" viewBox="0 0 348.76 387.3"><defs><style>.cls-1{fill:url(#linear-gradient-12);}.cls-1,.cls-2,.cls-3,.cls-4,.cls-5,.cls-6,.cls-7,.cls-8,.cls-9,.cls-10,.cls-11,.cls-12,.cls-13,.cls-14,.cls-15,.cls-16,.cls-17,.cls-18,.cls-19,.cls-20,.cls-21,.cls-22,.cls-23,.cls-24,.cls-25,.cls-26,.cls-27,.cls-28,.cls-29,.cls-30,.cls-31,.cls-32,.cls-33,.cls-34,.cls-35,.cls-36,.cls-37,.cls-38,.cls-39,.cls-40,.cls-41{stroke-width:0px;}.cls-2{fill:url(#linear-gradient-23);}.cls-2,.cls-8,.cls-11,.cls-14,.cls-23,.cls-26,.cls-31,.cls-36,.cls-38,.cls-40{mix-blend-mode:multiply;}.cls-3{fill:url(#linear-gradient-17);}.cls-4{fill:url(#linear-gradient-19);}.cls-5{fill:url(#linear-gradient);}.cls-6{fill:#37a6f0;}.cls-7{fill:#baa490;}.cls-8{fill:url(#radial-gradient-2);}.cls-9{fill:#cbb5a1;}.cls-10{fill:url(#linear-gradient-6);}.cls-11{fill:url(#linear-gradient-11);}.cls-42{isolation:isolate;}.cls-12{fill:#75c7fd;}.cls-13{fill:url(#linear-gradient-15);}.cls-14{fill:url(#radial-gradient);}.cls-15{fill:url(#linear-gradient-5);}.cls-43{fill:none;stroke:#194459;stroke-miterlimit:10;stroke-width:.71px;}.cls-16{fill:url(#linear-gradient-25);}.cls-17{fill:url(#linear-gradient-16);}.cls-18{fill:url(#linear-gradient-22);}.cls-19{fill:url(#linear-gradient-14);}.cls-20{fill:url(#linear-gradient-2);}.cls-21{fill:url(#linear-gradient-7);}.cls-22{fill:url(#linear-gradient-3);}.cls-23{fill:url(#linear-gradient-18);}.cls-24{fill:url(#linear-gradient-9);}.cls-25{fill:url(#linear-gradient-27);}.cls-26{fill:url(#linear-gradient-26);}.cls-27{fill:url(#linear-gradient-8);}.cls-44{fill:#ff586f;font-family:Poppins-Bold, Poppins;font-size:73.6px;font-weight:700;}.cls-28{fill:url(#linear-gradient-24);}.cls-29{fill:#005261;}.cls-30{fill:url(#linear-gradient-30);}.cls-31{fill:url(#radial-gradient-3);}.cls-32{fill:url(#linear-gradient-29);}.cls-33{fill:#cbb4a0;}.cls-34{fill:url(#linear-gradient-28);}.cls-35{fill:url(#linear-gradient-10);}.cls-36{fill:url(#linear-gradient-21);}.cls-37{fill:url(#linear-gradient-4);}.cls-38{fill:url(#linear-gradient-13);}.cls-39{fill:#fff3e2;}.cls-40{fill:url(#linear-gradient-20);}.cls-41{fill:#42b2fc;}</style><linearGradient id="linear-gradient" x1="304.49" y1="292.29" x2="346.04" y2="220.33" gradientUnits="userSpaceOnUse"><stop offset="0" stop-color="#007271"/><stop offset=".05" stop-color="#077675"/><stop offset=".27" stop-color="#208586"/><stop offset=".5" stop-color="#329092"/><stop offset=".73" stop-color="#3d9699"/><stop offset="1" stop-color="#41999c"/></linearGradient><linearGradient id="linear-gradient-2" x1="306.44" y1="256.03" x2="338.28" y2="256.03" gradientUnits="userSpaceOnUse"><stop offset="0" stop-color="#1e9fa3"/><stop offset=".06" stop-color="#27a4a7"/><stop offset=".28" stop-color="#40b4b5"/><stop offset=".5" stop-color="#52c0be"/><stop offset=".74" stop-color="#5dc6c4"/><stop offset="1" stop-color="#61c9c6"/></linearGradient><linearGradient id="linear-gradient-3" x1="320.74" y1="319.42" x2="341.5" y2="283.48" xlink:href="#linear-gradient"/><linearGradient id="linear-gradient-4" x1="316.65" y1="302" x2="347.72" y2="302" xlink:href="#linear-gradient-2"/><linearGradient id="linear-gradient-5" x1="302.62" y1="289.24" x2="282.99" y2="290.29" xlink:href="#linear-gradient"/><linearGradient id="linear-gradient-6" x1="282.35" y1="289.5" x2="309.15" y2="289.5" xlink:href="#linear-gradient-2"/><radialGradient id="radial-gradient" cx="161.52" cy="373.05" fx="161.52" fy="373.05" r="153.61" gradientTransform="translate(25.63 370.99) scale(.88 .02)" gradientUnits="userSpaceOnUse"><stop offset="0" stop-color="#d9c0cc"/><stop offset=".15" stop-color="#d9c1cc" stop-opacity=".98"/><stop offset=".29" stop-color="#dbc4cf" stop-opacity=".93"/><stop offset=".42" stop-color="#dec9d3" stop-opacity=".85"/><stop offset=".55" stop-color="#e3d0d9" stop-opacity=".73"/><stop offset=".68" stop-color="#e8dae1" stop-opacity=".58"/><stop offset=".8" stop-color="#f0e6ea" stop-opacity=".39"/><stop offset=".92" stop-color="#f8f3f6" stop-opacity=".18"/><stop offset="1" stop-color="#fff" stop-opacity="0"/></radialGradient><linearGradient id="linear-gradient-7" x1="167.19" y1="80.58" x2="164.45" y2="153.03" gradientUnits="userSpaceOnUse"><stop offset=".03" stop-color="#fec1b2"/><stop offset="1" stop-color="#f9aa95"/></linearGradient><linearGradient id="linear-gradient-8" x1="112.26" y1="209.26" x2="178.08" y2="209.26" xlink:href="#linear-gradient-7"/><linearGradient id="linear-gradient-9" x1="-39.69" y1="16.39" x2="-.86" y2="16.39" gradientTransform="translate(199.65 154.08) rotate(65.85)" gradientUnits="userSpaceOnUse"><stop offset="0" stop-color="#272438"/><stop offset="1" stop-color="#304260"/></linearGradient><linearGradient id="linear-gradient-10" x1="137.44" y1="184.76" x2="179.98" y2="184.76" xlink:href="#linear-gradient-7"/><linearGradient id="linear-gradient-11" x1="68.75" y1="-48.66" x2="52.64" y2="-25.95" gradientTransform="translate(96.58 168.08) rotate(45.16)" gradientUnits="userSpaceOnUse"><stop offset="0" stop-color="#d9988f"/><stop offset=".15" stop-color="#d99990" stop-opacity=".98"/><stop offset=".29" stop-color="#db9e96" stop-opacity=".93"/><stop offset=".42" stop-color="#dea79f" stop-opacity=".85"/><stop offset=".55" stop-color="#e3b3ad" stop-opacity=".73"/><stop offset=".68" stop-color="#e8c3be" stop-opacity=".58"/><stop offset=".8" stop-color="#f0d6d3" stop-opacity=".39"/><stop offset=".92" stop-color="#f8eceb" stop-opacity=".18"/><stop offset="1" stop-color="#fff" stop-opacity="0"/></linearGradient><linearGradient id="linear-gradient-12" x1="137.31" y1="151.13" x2="199.02" y2="151.13" xlink:href="#linear-gradient-7"/><linearGradient id="linear-gradient-13" x1="74.59" y1="-65.57" x2="34.76" y2="-61.84" xlink:href="#linear-gradient-11"/><linearGradient id="linear-gradient-14" x1="28.72" y1="44.45" x2="101.97" y2="44.45" gradientTransform="translate(175.22 149.31) rotate(32.28)" xlink:href="#linear-gradient-9"/><linearGradient id="linear-gradient-15" x1="-35.76" y1="12.81" x2="14.41" y2="12.81" xlink:href="#linear-gradient-9"/><linearGradient id="linear-gradient-16" x1="10.51" y1="40.35" x2="15.56" y2="40.35" gradientTransform="translate(220.23 138.91) rotate(55.42)" gradientUnits="userSpaceOnUse"><stop offset="0" stop-color="#ff9cb0"/><stop offset=".06" stop-color="#fd8da4"/><stop offset=".24" stop-color="#f96b89"/><stop offset=".42" stop-color="#f65173"/><stop offset=".61" stop-color="#f43e64"/><stop offset=".8" stop-color="#f3325b"/><stop offset="1" stop-color="#f32f58"/></linearGradient><radialGradient id="radial-gradient-2" cx="207.41" cy="115.11" fx="207.41" fy="115.11" r="18.36" gradientTransform="translate(0 45.14) scale(1 .61)" gradientUnits="userSpaceOnUse"><stop offset="0" stop-color="#d9988f"/><stop offset=".15" stop-color="#d99990" stop-opacity=".98"/><stop offset=".29" stop-color="#db9e96" stop-opacity=".93"/><stop offset=".42" stop-color="#dea79f" stop-opacity=".85"/><stop offset=".55" stop-color="#e3b3ad" stop-opacity=".73"/><stop offset=".68" stop-color="#e8c3be" stop-opacity=".58"/><stop offset=".8" stop-color="#f0d6d3" stop-opacity=".39"/><stop offset=".92" stop-color="#f8eceb" stop-opacity=".18"/><stop offset="1" stop-color="#fff" stop-opacity="0"/></radialGradient><radialGradient id="radial-gradient-3" cx="206.99" cy="131.5" fx="206.99" fy="131.5" r="18.18" gradientTransform="translate(0 51.56) scale(1 .61)" xlink:href="#radial-gradient-2"/><linearGradient id="linear-gradient-17" x1="151.98" y1="217.04" x2="246.06" y2="217.04" xlink:href="#linear-gradient-7"/><linearGradient id="linear-gradient-18" x1="225.48" y1="254.06" x2="198.05" y2="232.32" gradientUnits="userSpaceOnUse"><stop offset="0" stop-color="#d9988f"/><stop offset=".15" stop-color="#d99990" stop-opacity=".98"/><stop offset=".29" stop-color="#db9e96" stop-opacity=".93"/><stop offset=".42" stop-color="#dea79f" stop-opacity=".85"/><stop offset=".55" stop-color="#e3b3ad" stop-opacity=".73"/><stop offset=".68" stop-color="#e8c3be" stop-opacity=".58"/><stop offset=".8" stop-color="#f0d6d3" stop-opacity=".39"/><stop offset=".92" stop-color="#f8eceb" stop-opacity=".18"/><stop offset="1" stop-color="#fff" stop-opacity="0"/></linearGradient><linearGradient id="linear-gradient-19" x1="204.29" y1="178.99" x2="268.07" y2="178.99" xlink:href="#linear-gradient-7"/><linearGradient id="linear-gradient-20" x1="210.4" y1="194.89" x2="242.73" y2="175.4" xlink:href="#linear-gradient-18"/><linearGradient id="linear-gradient-21" x1="219.04" y1="137.75" x2="229.65" y2="137.75" gradientUnits="userSpaceOnUse"><stop offset="0" stop-color="#d9988f"/><stop offset=".15" stop-color="#d99990" stop-opacity=".98"/><stop offset=".29" stop-color="#db9e96" stop-opacity=".93"/><stop offset=".42" stop-color="#dea79f" stop-opacity=".85"/><stop offset=".55" stop-color="#e3b3ad" stop-opacity=".73"/><stop offset=".68" stop-color="#e8c3be" stop-opacity=".58"/><stop offset=".8" stop-color="#f0d6d3" stop-opacity=".39"/><stop offset=".92" stop-color="#f8eceb" stop-opacity=".18"/><stop offset="1" stop-color="#fff" stop-opacity="0"/></linearGradient><linearGradient id="linear-gradient-22" x1="213.69" y1="273.19" x2="275.71" y2="273.19" xlink:href="#linear-gradient-7"/><linearGradient id="linear-gradient-23" x1="222.21" y1="351.7" x2="241.96" y2="351.17" xlink:href="#linear-gradient-18"/><linearGradient id="linear-gradient-24" x1="202.16" y1="81.91" x2="199.42" y2="154.35" xlink:href="#linear-gradient-7"/><linearGradient id="linear-gradient-25" x1="5.06" y1="343.28" x2="185.77" y2="343.28" xlink:href="#linear-gradient-7"/><linearGradient id="linear-gradient-26" x1="57.55" y1="328.15" x2="39.97" y2="315.47" xlink:href="#linear-gradient-18"/><linearGradient id="linear-gradient-27" x1="137.02" y1="332.15" x2="78.58" y2="371.86" gradientTransform="matrix(1,0,0,1,0,0)" xlink:href="#linear-gradient-9"/><linearGradient id="linear-gradient-28" x1="147.83" y1="30.71" x2="254.21" y2="30.71" gradientTransform="translate(102.03 151.41) rotate(58.57)" xlink:href="#linear-gradient-9"/><linearGradient id="linear-gradient-29" x1="5.07" y1="355.63" x2="210.2" y2="355.63" xlink:href="#linear-gradient-7"/><linearGradient id="linear-gradient-30" x1="42.98" y1="16.65" x2="165.83" y2="16.65" gradientTransform="translate(102.03 151.41) rotate(58.57)" xlink:href="#linear-gradient-16"/></defs><g class="cls-42"><g id="BACKGROUND"><path class="cls-39" d="m293.71,147.14c-45.7-31.96-106.68-30.97-158.11-17.82-36.34,9.3-78.29,27.35-103.54,57.58-12.68,15.18-21.12,35.28-20.13,55.75,1.1,22.89,11.87,36.17,28.38,49.61,59.63,48.53,148.84,52.18,218.46,28.13,46.38-16.02,81.46-63.11,71.26-116.2-4.97-25.85-18.17-44.36-36.33-57.05Z"/><path class="cls-5" d="m310.81,295.94c-2.47-9.88-9.9-29.89,3.02-49.65,12.92-19.75,25.85-29.63,25.85-29.63,0,0-1.53,25.11-2.47,38.17-2.2,30.43-26.4,41.11-26.4,41.11Z"/><path class="cls-20" d="m314.09,281.17c2.06-7.59,2.9-15.47,6.18-22.69,6.16-13.58,10.23-27.86,18.01-40.66-3.68,3.11-14.05,12.6-24.44,28.47-12.23,18.69-6.24,37.6-3.47,47.95,1.23-4.35,2.53-8.69,3.72-13.08Z"/><path class="cls-29" d="m318.74,255.71c-1.05-3.41-2.19-5.48-2.39-5.37-.24.11.9,2.16,1.69,5.56.44,1.91.56,4.25.28,6.61l.7.09.7.09c.3-2.69-.41-5.07-.99-6.97Z"/><path class="cls-29" d="m323.58,269.75c2.21-1.4,4.18-2.36,5.6-2.91,1.41-.57,2.25-.76,2.23-.89-.02-.13-.92-.04-2.39.46-1.48.48-3.5,1.4-5.82,2.72-2.59,1.49-5.65,3.4-8.54,5.94l.47.53.47.53c2.82-2.48,5.48-4.78,7.97-6.38Z"/><path class="cls-29" d="m329.85,242.71c1.36-1.31,2.65-2.21,3.58-2.78.94-.56,1.52-.77,1.49-.88-.03-.13-.69-.02-1.71.48-1.01.51-2.37,1.39-3.85,2.64-1.66,1.39-3.64,3.12-5.36,5.3l.56.44.56.44c1.67-2.13,3.19-4.16,4.73-5.64Z"/><path class="cls-29" d="m313.39,285.89c.97-5.44,2.33-10.57,3.66-15.42,1.44-4.83,2.9-9.37,4.46-13.58,3.08-8.43,6.22-15.6,8.89-21.46,2.67-5.86,4.93-10.38,6.41-13.49.76-1.55,1.33-2.74,1.7-3.55.37-.81.54-1.24.5-1.26s-.29.37-.72,1.15c-.44.78-1.06,1.94-1.87,3.46-1.58,3.06-3.91,7.56-6.65,13.4-2.74,5.84-5.94,13-9.08,21.45-1.59,4.21-3.09,8.77-4.57,13.61-1.38,4.87-2.78,10.01-3.8,15.48-.66,3.06-1.1,6.24-1.6,9.48-.19,1.63-.37,3.27-.56,4.94-.2,1.66-.25,3.35-.39,5.06-.41,6.81-.6,13.85-.79,21.12-.33,14.55-.4,29.95.06,45.92l1.06-.04,1.06-.04c-.45-15.91-.59-31.3-.5-45.82.08-7.26.14-14.32.44-21.08.11-1.69.13-3.36.31-5.01.17-1.65.33-3.28.49-4.9.46-3.22.85-6.38,1.48-9.43Z"/><path class="cls-22" d="m316.58,317.01c.47-5.07,0-15.92,11.37-21.9,11.36-5.97,20.81-7.45,20.81-7.45,0,0-5.75,11.07-8.83,16.8-7.17,13.34-23.35,12.55-23.35,12.55Z"/><path class="cls-37" d="m329.93,300.96c6.22-4.75,10.76-9.09,17.78-13.1-2.75.56-10.64,2.45-19.77,7.25-10.75,5.65-10.92,15.66-11.3,21.02,3.71-6.57,9.97-12.65,13.28-15.18Z"/><path class="cls-29" d="m328.86,300.4c.14-1.73.01-2.87-.23-2.85-.26.01-.11,1.13-.49,2.74-.21.91-.77,1.87-1.32,2.76l.6.38.6.38c.72-1.18.76-2.45.84-3.41Z"/><path class="cls-29" d="m328.63,308.44c3.46-.36,5.74-.02,5.77-.26.04-.25-2.3-.58-5.82-.46-1.98.05-4.37.1-6.87.64l.15.69.15.69c2.41-.53,4.66-1.11,6.61-1.3Z"/><path class="cls-29" d="m337.68,297.45c2.35-.63,3.96-.47,3.97-.71.03-.26-1.66-.4-4.12,0-1.38.21-3.08.44-4.76,1.13l.27.65.27.65c1.58-.65,3.04-1.39,4.36-1.73Z"/><path class="cls-29" d="m318.4,314.86c3.36-5.14,7.35-9.2,11.05-12.54,3.72-3.34,7.22-5.96,10.13-8.06,2.92-2.1,5.26-3.67,6.84-4.78,1.58-1.1,2.4-1.73,2.34-1.81-.05-.08-.94.43-2.58,1.44-1.64,1.02-4.03,2.53-6.99,4.58-2.96,2.06-6.51,4.65-10.31,7.98-3.77,3.33-7.87,7.39-11.38,12.59-1.96,2.93-3.74,6.22-4.95,9.9-.6,1.84-1.09,3.76-1.34,5.77-.28,1.99-.42,3.98-.58,6.02-.57,8.14-.79,16.75-.72,25.68h1.06s1.06-.03,1.06-.03c-.06-8.88-.05-17.48.28-25.56.18-4.06.37-7.93,1.52-11.48,1.06-3.57,2.71-6.81,4.58-9.7Z"/><path class="cls-15" d="m306.12,318.29c1.79-7.25,7.36-22-3.47-36.11-10.83-14.11-21.46-21.03-21.46-21.03,0,0,1.76,18.27,2.79,27.76,2.41,22.13,22.14,29.38,22.14,29.38Z"/><path class="cls-10" d="m303.17,307.6c-1.82-5.49-2.66-11.21-5.45-16.4-5.25-9.76-8.83-20.08-15.37-29.24,3.03,2.19,11.59,8.87,20.3,20.22,10.25,13.35,5.82,27.27,3.8,34.87-1.08-3.15-2.22-6.28-3.27-9.45Z"/><path class="cls-29" d="m299.53,289.28c.54-2.49,1.41-3.98,1.17-4.1-.21-.11-1.07,1.4-1.87,3.91-.44,1.4-1.03,3.17-.72,5.2l.7-.12.7-.12c-.26-1.66-.27-3.38.03-4.77Z"/><path class="cls-29" d="m295.53,298.9c-3.79-1.83-6.61-2.3-6.64-2.01-.04.21,2.69.64,6.31,2.66,2.04,1.12,4.23,2.81,6.58,4.58l.43-.57.43-.57c-2.43-1.82-4.97-3.09-7.11-4.1Z"/><path class="cls-29" d="m290.02,279.38c-1.24-.86-2.34-1.46-3.16-1.79-.82-.33-1.34-.37-1.36-.24-.02.12.43.27,1.18.66.75.39,1.79,1.02,2.91,1.95,1.27,1.05,2.52,2.57,3.93,4.11l.52-.48.52-.48c-1.47-1.59-3.15-2.76-4.54-3.73Z"/><path class="cls-29" d="m304.69,310.39c-1.99-7.94-4.74-14.93-7.44-20.97-2.72-6.04-5.43-11.13-7.74-15.26-2.31-4.14-4.25-7.31-5.58-9.46-1.35-2.14-2.1-3.26-2.19-3.21s.55,1.24,1.81,3.44c1.24,2.21,3.11,5.41,5.36,9.57,2.25,4.16,4.9,9.25,7.55,15.28,2.63,6.03,5.3,13,7.18,20.88.57,2.21.98,4.51,1.42,6.85.33,2.36.71,4.76.87,7.23.39,4.94.58,10.13.78,15.45.36,10.65.56,21.96.52,33.63h1.06s1.06.02,1.06.02c.03-11.74-.37-23.05-.96-33.73-.32-5.34-.63-10.5-1.13-15.5-.21-2.51-.65-4.94-1.02-7.32-.49-2.36-.93-4.68-1.54-6.9Z"/><rect class="cls-33" x="289.22" y="338.26" width="41.83" height="4.96"/><polygon class="cls-9" points="328.06 343.22 292.21 343.22 296.82 378.23 323.45 378.23 328.06 343.22"/><polygon class="cls-7" points="327.42 348.04 328.06 343.22 292.21 343.22 292.84 348.04 327.42 348.04"/><ellipse class="cls-6" cx="167.41" cy="380.76" rx="167.41" ry="6.54"/><rect class="cls-6" y="379.58" width="334.83" height="1.19"/><ellipse class="cls-41" cx="167.41" cy="379.58" rx="167.41" ry="6.54"/><ellipse class="cls-12" cx="167.41" cy="379.58" rx="137.03" ry="3.76"/><ellipse class="cls-14" cx="167.41" cy="379.58" rx="137.03" ry="3.76"/></g><g id="OBJECTS"><text class="cls-44" transform="translate(52.73 62.75)"><tspan x="0" y="0">YOGA</tspan></text><path class="cls-21" d="m108.96,208.44c-4.06-13.57-3.43-36-4.17-56.52-.74-20.52,4.26-54.42,6.25-60.3,1.98-5.88,2.51-7.99,13.58-7.47,11.07.52,59.91,5.38,67.13,6.14,7.22.77,11.5.54,15.21,3.27s6.19,13.52,9.05,16.21,4.36,7.03,7.32,7.6,3.57,5.71-.38,8.09-7.9,4.75-12.57,4.1c-4.66-.65-11.1-9.06-12.29-10.82-1.2-1.76-7.32-7.6-9.29-11.1-1.97-3.51-2.31-5.23-2.31-5.23,0,0-15.35-.29-21.83,1.53-6.49,1.83-32.56,2.74-32.56,2.74,0,0,.1,25.18.66,40.35.57,15.17,3.26,39.62,5.29,50.81s-22.84,31.45-29.09,10.58Z"/><path class="cls-27" d="m155.13,181.85c-5.46,2.21-7.12,1.81-12.73,2.79-5.61.98-20.62,7.25-26.17,15-5.56,7.76-5.9,15.01,2.96,21.14,8.86,6.13,31.86,15.89,31.86,15.89l4.06-26.95s12.52-15.1,18.91-17.04l4.06-4.05-22.94-6.78Z"/><path class="cls-24" d="m173.39,161.54c5.05-3.07,10.77-4.3,16.48-4.03,3.02-14.09,4.42-27.7,4.42-27.7,0,0-8.62-13.2-24.54-5.82-11.47,5.31-13.48,19.9-7.82,38.42,3.81-.38,7.66-.43,11.46-.87Z"/><path class="cls-35" d="m177.28,189.35c-2.67-2.27-8.47-3.24-6.98-6.93,4.67-11.52,9.68-14.37,9.68-14.37l-30.91-1.09c1,3.17-7.26,18.15-11.63,23.41.31.09.61.2.92.29.57-.03,1.26-.35,1.72,0,8.51,6.35,16.25,11.99,22.21,11.87,4-4.97,9.44-9.11,15-13.19Z"/><path class="cls-11" d="m177.28,189.35c-2.67-2.27-8.47-3.24-6.98-6.93,4.67-11.52,9.68-14.37,9.68-14.37l-30.91-1.09c1,3.17-7.26,18.15-11.63,23.41.31.09.61.2.92.29.57-.03,1.26-.35,1.72,0,8.51,6.35,17.77,15.26,23.72,15.15,4-4.97,7.92-12.38,13.48-16.46Z"/><path class="cls-1" d="m173.18,128.02c-4.63.63-9.23,3.86-11.18,5.53-1.95,1.67-2.92,4.3-5.65,4.82-2.73.52-9.28-.52-10.61.04-1.33.56-.59,5.2-.97,6.15-.39.95-4.72,7.48-6.97,10.72-2.26,3.25,3.91,9.54,9.06,12.57,5.14,3.03,14.69,5.47,18.4,6.38,3.71.91,14.54-3.35,14.54-3.35l17.62-11.96s5.5-10.6-3.79-19.73c-9.29-9.14-14.94-11.93-20.44-11.17Z"/><path class="cls-38" d="m173.18,128.02c-4.63.63-9.23,3.86-11.18,5.53-1.95,1.67-2.92,4.3-5.65,4.82-2.73.52-9.28-.52-10.61.04-1.33.56-.59,5.2-.97,6.15-.39.95-4.72,7.48-6.97,10.72-2.26,3.25,3.91,9.54,9.06,12.57,5.14,3.03,14.69,5.47,18.4,6.38,3.71.91,14.54-3.35,14.54-3.35l17.62-11.96s5.5-10.6-3.79-19.73c-9.29-9.14-14.94-11.93-20.44-11.17Z"/><path class="cls-19" d="m191.83,176.79s1.93,9.75.15,20.03c-3.58,20.63-7.84,31.12-6.57,39.85,2.21,15.22,8.89,27.76,33.63,34.23,0,0-14.75-19.01,4.67-36.31,14.75-13.15-17.31-52.73-24.85-62.94l-7.03,5.15Z"/><path class="cls-13" d="m197.75,169.01c.28-1.76,10.93-6.85,9.76-17.31-3.38-30.1-33.71-25.22-33.71-25.22,0,0-3.39,4.86-2.96,10.25.45,5.65,3.76,8.12,2.89,10.3-1.97,4.93-6.84,3.79-5.51,11.12,1.11-.12,3.43-1.86,4.04-2.22,2.07-1.24,7.23-4.97,10.59-.78,2.03,2.52-.9,8.27-8.69,7.91-1.4-.07-3.35-.8-4.48-.87-5.76,9.8,2.43,11.64,3.77,13.05,2.58,2.73,15.8-2.22,15.8-2.22,3.64.19,8.08-1.34,8.51-4.01Z"/><path class="cls-17" d="m197.75,169.01s-4.51,3.97-8.51,4.01c0,0,1.2,2.64,2.59,3.76,0,0,4.8-1.81,7.03-5.15,0,0,1.08,1.5-1.11-2.63Z"/><path class="cls-43" d="m176.3,128.78c-3.57,1.9-6.26,5.37-7.22,9.29-.96,3.92-.18,8.24,2.1,11.58"/><path class="cls-8" d="m198.97,108.74c1.38,1.56,2.43,3.4,4.13,4.64,1.69,1.24,6.17,8.81,8.1,9.65,4.49,1.95,6.38,5.37,11.92,2.33,3.75-2.42,3.13-7.42.21-7.97-2.96-.57-8.73-11.27-7.32-7.6.93,2.43-4.66-12.56-9.05-16.21-.72-.6-1.54-.96-2.35-1.3-.31.27-.67.5-1.11.66-.16.06-.31.13-.47.19-3.47,3.2-6.52,6.71-9.01,10.5,1.6,1.71,3.35,3.29,4.97,5.11Z"/><path class="cls-31" d="m209.32,119.21c-3.75-.39-7.55-.45-11.33-.59.03.04.07.09.1.13,1.2,1.76,7.63,10.17,12.29,10.82,4.66.65,8.62-1.73,12.57-4.1.58-.35,1.06-.77,1.45-1.21-4.49-3-9.74-4.49-15.07-5.05Z"/><path class="cls-3" d="m162.73,197.27c6.3-6.07,15.96-9.57,26.7-2.55s34.97,18.07,52.24,24.74l4.4,23.16s-23.57-3.22-35.79-6.4c-12.22-3.18-27.54-9.76-35.43-8.18-7.89,1.58-22.86,15.21-22.86,15.21,0,0,1.44-37.01,10.75-45.97Z"/><path class="cls-23" d="m162.73,197.27c6.3-6.07,15.96-9.57,26.7-2.55s34.97,18.07,52.24,24.74l4.4,23.16s-23.57-3.22-35.79-6.4c-12.22-3.18-27.54-9.76-35.43-8.18-7.89,1.58-22.86,15.21-22.86,15.21,0,0,1.44-37.01,10.75-45.97Z"/><path class="cls-4" d="m267.2,241.82c-1.68,3.68-17.94,1.05-21.13.8-3.19-.25-12.81-18.02-12.81-18.02l8.41-5.14s-4.53-14.54-5.78-29.59c-1.25-15.03-8.49-30-10.85-32.41-4.29-4.4-7.32-10.77-10.88-18.11-3.55-7.32-13.06-10.86-8.8-13.44,2.15-1.3,7.32.4,9.9,3.01.16.16.31.34.45.51,2.39,2.86,7.04,6.36,9,6.7,1.97.34-2.25-5.99-5.32-10.1-.11-.16-.24-.31-.36-.45-2.93-3.8-6.03-5.65-9.54-7.75-3.66-2.17-1.85-3.6.92-3.46,2.75.13,5.5.25,5.5.25,0,0,3.06-1.1,6.26.29,3.2,1.41,12.02,11.37,13.92,13.47,1.92,2.08,4.47,17.27,4.56,20.55.09,3.26.71,7.61,4.02,17.06,3.33,9.45,15.26,37.32,19.45,50.07,4.16,12.77,4.73,22.07,3.06,25.77Z"/><path class="cls-40" d="m267.2,241.82c-1.68,3.68-17.94,1.05-21.13.8-3.19-.25-12.81-18.02-12.81-18.02l8.41-5.14s-4.53-14.54-5.78-29.59c-1.25-15.03-8.49-30-10.85-32.41-4.29-4.4-7.32-10.77-10.88-18.11-3.55-7.32-13.06-10.86-8.8-13.44,2.15-1.3,7.32.4,9.9,3.01.16.16.31.34.45.51,2.39,2.86,7.04,6.36,9,6.7,1.97.34-2.25-5.99-5.32-10.1-.11-.16-.24-.31-.36-.45-2.93-3.8-6.03-5.65-9.54-7.75-3.66-2.17-1.85-3.6.92-3.46,2.75.13,5.5.25,5.5.25,0,0,3.06-1.1,6.26.29,3.2,1.41,12.02,11.37,13.92,13.47,1.92,2.08,4.47,17.27,4.56,20.55.09,3.26.71,7.61,4.02,17.06,3.33,9.45,15.26,37.32,19.45,50.07,4.16,12.77,4.73,22.07,3.06,25.77Z"/><path class="cls-36" d="m219.4,126.03c-.11-.16-.24-.31-.36-.45,2.97,1.81,6.59,4.6,8.13,8,2.86,6.28,2.28,9.89,2.48,16.35,0,0-2.48-10.83-4.93-13.8,1.97.34-2.25-5.99-5.32-10.1Z"/><path class="cls-18" d="m222.6,330.15s17.6,5.7,21.39,6.62c0,0-5.12-19.12-5.23-38.98-.11-19.86,1.39-51.17.18-54-2.78-6.45-12.78-3.29-15.23-9.2-2.43-5.86,4.01-14.96,4.93-25.96.63-7.55-4.94-17.15-3.49-21.72,1.44-4.57,1.03-5.58,2.02-6.33,0,0-.91-3.61.42-4.38,0,0,.65-3.63,2.78-2.73,2.12.9,3.2,2.66,3.77,6.42.58,3.76.93,5.89,2.09,7.88,1.16,2,13.64,24.77,14.75,30.36,1.11,5.58,6.7,19.95,9.15,30.29,2.45,10.34,13.74,68.16,15.35,78.98,1.6,10.82-4.79,38.07-16.11,41.78-5.57,1.83-12.95,3.07-26.9,3.76-10.7.53-18.77-.77-18.77-.77l8.91-42.01Z"/><path class="cls-2" d="m242.82,336.47c-5.75-1.46-20.22-6.32-20.22-6.32l-8.91,42.01s8.07,1.3,18.77.77c10.68-.52,17.51-1.38,22.62-2.57-2.85-11.59-7.36-22.83-12.26-33.9Z"/><path class="cls-28" d="m186.48,102.43s3.28,2.01,5.73,4.52c3.84,3.93,9.1,6.43,11.86,8.09,2.76,1.66,6.34,4.67,9.38,5.03,3.04.36,3.01-3.57.29-6.11-2.72-2.53-6.42-7.51-7.34-11.27-.92-3.76-5.44-6.85-7.51-7.57-3.03-1.05-5.38-1.14-9.14,0-3.76,1.14-3.26,7.31-3.26,7.31Z"/><path class="cls-16" d="m127.11,313.11s-74.06,8.1-94.73,14.77c-20.67,6.67-27.94,10.56-27.27,23.9s20,19.33,44.67,21.33c24.67,2,136-5.33,136-5.33,0,0-38-50-58.67-54.67Z"/><path class="cls-26" d="m127.11,313.11s-74.06,8.1-94.73,14.77c-20.67,6.67-27.94,10.56-27.27,23.9s20,19.33,44.67,21.33c24.67,2,136-5.33,136-5.33,0,0-38-50-58.67-54.67Z"/><path class="cls-25" d="m58.2,373.43c35.03.44,127.57-5.65,127.57-5.65,0,0-60.57-48.33-81.23-53,0,0-28.56,4.99-57.69,9.9-.68,17.65,4.32,32.67,11.35,48.75Z"/><path class="cls-34" d="m175.27,287.92c13.48,4.92,12.58,6.13,22.39,19.49,5.41,7.37,26.67,23.12,35.55,25.76,0,0,.41,6.16-1.14,21.16-1.27,12.27-5.25,18.73-5.25,18.73,0,0-20.84.23-43.77-4.31-22.93-4.54-43.42-18.42-53.63-25.89-10.21-7.47-13.63-22.31-13.63-22.31,0,0,43.55-38.45,59.48-32.63Z"/><path class="cls-32" d="m209.21,369.04c-.09-1.54-2.52-3.71-2.52-3.71-.22-1.22-1.31-1.31-4.74-4.66-3.43-3.35-15.6-5.75-22.94-7.62-10.7-2.73-18.6-10.59-24.78-9.17-6.24,1.44-4.72,11.83-11.54,13.5-.86.21-18.49-2.03-28.34-3.5-4.66-.76-9.38-1.57-13.7-2.38h0c-8.42-1.7-16.88-3.92-22.95-6.72-17.33-8-72.63-20.91-72.62,3.51,0,9.47,6.67,24,36.67,28,17.23,2.3,118.27-.81,123.96-.98,5.69-.17,25.44-4.29,27.75-4.43,2.3-.13,4.29,2.22,7.9,3.4,3.61,1.18,6.37.87,8.13-.62,1.76-1.49-.26-4.61-.26-4.61Z"/><path class="cls-30" d="m142.41,184.64c-7.1,2.32-20.96,10.44-24.2,16.93-3.24,6.49,2.94,7.28,13.84,2.35,10.9-4.93,30.36-11.42,35.01-13.44,4.65-2.02,12.06-1.88,12.06-1.88l6.28,3.85s-8.51-.65-18.98,8.32c-5.31,4.54-5.65,26.22,12.91,27.1,0,0,.7,4.07-6.53,11.25-1.3,1.29-10.33,14.56-12.17,25.51s1.92,16.31,5.64,18.88c3.72,2.57,9,4.4,9,4.4,0,0-3.81,15.11-19.85,25.19-13.83,8.69-18.99,9.52-39.96,7.73-4.14-.36-10.92-6.06-10.92-6.06,0,0,2.62-8.95-2.24-16.9-3.89-6.37-6.31-43.31-5.52-49.5,0,0-8.56-12.36-7.15-20.67,2.35-13.84,12.73-21.63,19.63-29.08,6.9-7.45,28.12-16.46,28.12-16.46l5.02,2.48Z"/></g></g></svg>